<svg xmlns="http://www.w3.org/2000/svg" width="120" height="120" viewBox="0 0 620 620" preserveAspectRatio="xMinYMid meet"><g><path fill="#e0234e" d="m325.7 31.9-16-14.7L293.4 32c-1.4.7-112 96.6-218 96.6h-25v24.9c0 95.9 0 204.9 46.9 289C145 526.7 237.2 586 304.5 601.4l5.9 1.5 5.8-1.5c64.4-16.1 154.4-76.1 201.3-158.8 47.6-83.5 52-188.1 52-288.4v-24.9h-25.7c-106-.7-216.6-95.8-218-97.3zz"/><path fill="#fff" d="M221 334h1.8c6.6-1 12.4-4.1 16.8-9a35 35 0 0 0 8-28.2 51.2 51.2 0 0 0-18.3-34 43 43 0 0 0-18.3-9.3c-4.3-.8-8.3-1.1-12.5-.5a28 28 0 0 0-16.5 9c-3.6 3.9-6.1 9.2-7.2 15-.6 3.2-1 6.2-.7 9.2v1l.3 2.6v1a51.1 51.1 0 0 0 17 31.8c5.5 5 11.5 8.4 18 10 4 1.5 8 1.8 11.6 1.5M231 241.9a55 55 0 0 0 8.7 19c4 5.4 8.2 9.3 13.3 12.3 4.2 2.7 8.7 4.3 13.6 4.5h2.4c4.8 0 9.3-1.2 13.2-3.9 4-2 7.6-5.4 10.6-9.3 4.2-5.4 6.9-12 8.1-20 .3-3.2.6-6.6.6-10.2a55.5 55.5 0 0 0-16.9-40.7c-3.9-3.6-8.1-6.3-12.6-7.8a28 28 0 0 0-17.2-1 28.1 28.1 0 0 0-14.5 8.8c-3.6 4-6 8.2-8.1 13.3-2.1 6-3.3 12.3-3.3 19.6 0 1.2.3 2.4.3 4.2.3 3.6.9 7.5 1.8 11.2M316.6 256c2 6 5 10.9 9.3 14.8a29 29 0 0 0 19 8.5h1.8c3.6 0 7-1 10.5-1 5.2-2 9.7-5 14.2-9.3a63 63 0 0 0 15.7-55.8 43 43 0 0 0-7-16 30.6 30.6 0 0 0-21-13h-7.6c-3.9.7-8.1 1.9-11.7 4a47.2 47.2 0 0 0-13.3 11.4 59.6 59.6 0 0 0-13 36.5 67 67 0 0 0 3 20M445.2 277c-1-5.8-3.6-11.1-7.3-15a28 28 0 0 0-16.4-9c-4.2-.6-8.2-.3-12.5.5a43 43 0 0 0-18.3 9.4 51.5 51.5 0 0 0-18.3 33.9 35.5 35.5 0 0 0 8 28.1 27.3 27.3 0 0 0 18.6 9.2c3.6.3 7.6 0 11.6-1.5 6.5-1.6 12.5-5 18-10a51.1 51.1 0 0 0 16.8-32l.2-.8.2-2.7.1-.9c.3-3 0-6-.7-9.1M392.5 358a80 80 0 0 0-14.5-16c-4-3.6-7.8-7.6-11.1-11.8-3.7-4.5-7-9.3-9.7-13.5l-2-3.4-6.4-9.6a67.1 67.1 0 0 0-9.7-11.8 43 43 0 0 0-19.8-10.8c-4.9-1.2-10-1.5-14.8-1.5-4.5 0-9 .9-13.3 2.7a48 48 0 0 0-14.4 10c-2.7 2.6-5.8 6-8.8 9.9-3 3.9-5.7 7.8-8.4 11.7l-1.5 2.5c-3.6 4.8-7.2 10.2-11.5 15-3.6 4.3-6.9 7.6-10.2 10.6a76.4 76.4 0 0 0-22.6 32.6A61.3 61.3 0 0 0 211 389c-.3 4.3 0 8.8.9 12.7a42.8 42.8 0 0 0 17.5 26.8 36 36 0 0 0 18.3 7c1 .3 1.5.3 2.5.3h4.5c2.7 0 5.4-.3 7.5-.6 6-1.2 12-2.7 17.5-4.2h.3c5.1-1.3 10.2-2.8 15.3-3.7 2.2-.3 4.9-.9 7.6-.9 3.6 0 7 0 10 .3 4.1.6 9 1.5 14 2.7 2.5.6 5.2 1.6 7.6 2.2l10.6 2.7c3.6.9 7.5 1.8 11.7 1.8h7.2c.7 0 1-.3 1.6-1.2a40.5 40.5 0 0 0 19.9-7.5c6-4.3 10.8-9.7 13.8-16a46.4 46.4 0 0 0 1.5-36.8 57.4 57.4 0 0 0-8.4-16.6"/></g></svg>
